<svg width="156" height="19" viewBox="0 0 156 19" fill="none" xmlns="http://www.w3.org/2000/svg">
<path d="M50.3719 0V18.75H46.8564V0H50.3719ZM49.8714 11.6821H48.9072C48.9152 10.7625 49.0374 9.91618 49.2734 9.14307C49.5094 8.36182 49.8472 7.68635 50.2864 7.1167C50.7259 6.5389 51.2509 6.0913 51.8612 5.77392C52.4797 5.45655 53.1634 5.29785 53.9119 5.29785C54.5632 5.29785 55.1532 5.39145 55.6822 5.57863C56.2192 5.75765 56.6789 6.05062 57.0614 6.45752C57.4522 6.85627 57.7532 7.38117 57.9647 8.03222C58.1764 8.68327 58.2822 9.47265 58.2822 10.4004V18.75H54.7422V10.376C54.7422 9.79005 54.6567 9.33025 54.4857 8.99658C54.3229 8.65478 54.0829 8.41472 53.7654 8.27637C53.4564 8.12987 53.0739 8.05665 52.6182 8.05665C52.1134 8.05665 51.6822 8.15023 51.3242 8.3374C50.9742 8.52458 50.6934 8.785 50.4819 9.11865C50.2702 9.44418 50.1157 9.82665 50.0179 10.2661C49.9204 10.7056 49.8714 11.1776 49.8714 11.6821Z" fill="#277346"/>
<path d="M44.9395 5.54052V8.03077H37.249V5.54052H44.9395ZM39.1533 2.28125H42.669V14.769C42.669 15.1515 42.7178 15.4445 42.8155 15.6479C42.9213 15.8514 43.0758 15.9938 43.2793 16.0752C43.4828 16.1484 43.739 16.185 44.0483 16.185C44.268 16.185 44.4633 16.1769 44.6343 16.1606C44.8133 16.1362 44.9638 16.1118 45.086 16.0874L45.0983 18.6753C44.797 18.7729 44.4715 18.8503 44.1215 18.9072C43.7718 18.9642 43.385 18.9927 42.962 18.9927C42.1888 18.9927 41.5133 18.8665 40.9355 18.6142C40.3658 18.3538 39.9265 17.9388 39.6173 17.3691C39.308 16.7995 39.1533 16.0508 39.1533 15.123V2.28125Z" fill="#277346"/>
<path d="M32.2685 15.5854V5.53906H35.7843V18.7471H32.476L32.2685 15.5854ZM32.6593 12.8755L33.6968 12.8511C33.6968 13.73 33.595 14.5478 33.3915 15.3047C33.1883 16.0534 32.883 16.7044 32.476 17.2578C32.0693 17.8031 31.5565 18.2303 30.938 18.5395C30.3195 18.8406 29.5913 18.9912 28.753 18.9912C28.11 18.9912 27.516 18.9017 26.9708 18.7226C26.4335 18.5355 25.9698 18.2466 25.579 17.8559C25.1965 17.4572 24.8955 16.9486 24.6758 16.3301C24.4642 15.7034 24.3584 14.9507 24.3584 14.0718V5.53906H27.874V14.0962C27.874 14.4868 27.9188 14.8164 28.0083 15.085C28.106 15.3535 28.2403 15.5732 28.411 15.7441C28.582 15.915 28.7815 16.0371 29.0093 16.1103C29.2453 16.1836 29.5058 16.2202 29.7905 16.2202C30.5148 16.2202 31.0845 16.0737 31.4995 15.7808C31.9228 15.4878 32.2198 15.089 32.3905 14.5845C32.5698 14.0718 32.6593 13.5021 32.6593 12.8755Z" fill="#277346"/>
<path d="M15.228 4.01613L10.394 18.75H6.5L13.104 0.976562H15.582L15.228 4.01613ZM19.2442 18.75L14.398 4.01613L14.0073 0.976562H16.5098L23.1504 18.75H19.2442ZM19.0244 12.1338V15.0024H9.6372V12.1338H19.0244Z" fill="#277346"/>
<path d="M8.72803 4.01613L3.89405 18.75H0L6.604 0.976562H9.08202L8.72803 4.01613ZM12.7442 18.75L7.89795 4.01613L7.50733 0.976562H10.0098L16.6504 18.75H12.7442ZM12.5244 12.1338V15.0024H3.1372V12.1338H12.5244Z" fill="#40D97B"/>
<path d="M148.304 18.7464H146.708V5.48438H151.534C152.763 5.48438 153.7 5.82004 154.346 6.49137C154.992 7.16271 155.315 8.10004 155.315 9.30338C155.315 10.38 155.036 11.2414 154.479 11.8874C153.922 12.5334 153.111 12.907 152.047 13.0084L155.429 18.7464H153.643L150.413 13.0844H148.304V18.7464ZM151.496 11.7354C152.167 11.7354 152.687 11.5707 153.054 11.2414C153.434 10.8994 153.624 10.418 153.624 9.79737V8.80937C153.624 8.18871 153.434 7.71371 153.054 7.38437C152.687 7.04237 152.167 6.87138 151.496 6.87138H148.304V11.7354H151.496Z" fill="#40D97B"/>
<path d="M135.315 18.7464V5.48438H143.485V6.87138H136.911V11.3364H143.257V12.7234H136.911V17.3594H143.485V18.7464H135.315Z" fill="#40D97B"/>
<path d="M125.519 18.7464H123.923V5.48438H128.749C129.978 5.48438 130.915 5.82004 131.561 6.49137C132.207 7.16271 132.53 8.10004 132.53 9.30338C132.53 10.38 132.251 11.2414 131.694 11.8874C131.137 12.5334 130.326 12.907 129.262 13.0084L132.644 18.7464H130.858L127.628 13.0844H125.519V18.7464ZM128.711 11.7354C129.382 11.7354 129.902 11.5707 130.269 11.2414C130.649 10.8994 130.839 10.418 130.839 9.79737V8.80937C130.839 8.18871 130.649 7.71371 130.269 7.38437C129.902 7.04237 129.382 6.87138 128.711 6.87138H125.519V11.7354H128.711Z" fill="#40D97B"/>
<path d="M116.521 18.9758C115.71 18.9758 115.013 18.8238 114.431 18.5198C113.848 18.2031 113.367 17.7535 112.987 17.1708C112.607 16.5881 112.328 15.8725 112.151 15.0238C111.973 14.1751 111.885 13.2061 111.885 12.1168C111.885 11.0401 111.973 10.0775 112.151 9.22881C112.328 8.36748 112.607 7.64548 112.987 7.06281C113.367 6.48015 113.848 6.03681 114.431 5.73281C115.013 5.41615 115.71 5.25781 116.521 5.25781C117.331 5.25781 118.028 5.41615 118.611 5.73281C119.193 6.03681 119.675 6.48015 120.055 7.06281C120.435 7.64548 120.713 8.36748 120.891 9.22881C121.068 10.0775 121.157 11.0401 121.157 12.1168C121.157 13.2061 121.068 14.1751 120.891 15.0238C120.713 15.8725 120.435 16.5881 120.055 17.1708C119.675 17.7535 119.193 18.2031 118.611 18.5198C118.028 18.8238 117.331 18.9758 116.521 18.9758ZM116.521 17.5888C117.053 17.5888 117.502 17.4875 117.87 17.2848C118.237 17.0695 118.541 16.7718 118.782 16.3918C119.022 16.0118 119.193 15.5558 119.295 15.0238C119.409 14.4791 119.466 13.8711 119.466 13.1998V11.0338C119.466 10.3751 119.409 9.77348 119.295 9.22881C119.193 8.68415 119.022 8.22181 118.782 7.84181C118.541 7.46181 118.237 7.17048 117.87 6.96781C117.502 6.75248 117.053 6.64481 116.521 6.64481C115.989 6.64481 115.539 6.75248 115.172 6.96781C114.804 7.17048 114.5 7.46181 114.26 7.84181C114.019 8.22181 113.842 8.68415 113.728 9.22881C113.626 9.77348 113.576 10.3751 113.576 11.0338V13.1998C113.576 13.8711 113.626 14.4791 113.728 15.0238C113.842 15.5558 114.019 16.0118 114.26 16.3918C114.5 16.7718 114.804 17.0695 115.172 17.2848C115.539 17.4875 115.989 17.5888 116.521 17.5888Z" fill="#40D97B"/>
<path d="M101.708 18.7464V5.48438H103.304V17.3594H109.593V18.7464H101.708Z" fill="#40D97B"/>
<path d="M89.7451 18.7464V5.48438H94.5711C95.7998 5.48438 96.7371 5.82004 97.3831 6.49137C98.0291 7.16271 98.3521 8.10004 98.3521 9.30338C98.3521 10.5067 98.0291 11.444 97.3831 12.1154C96.7371 12.7867 95.7998 13.1224 94.5711 13.1224H91.3411V18.7464H89.7451ZM91.3411 11.7354H94.5331C95.2045 11.7354 95.7238 11.5707 96.0911 11.2414C96.4711 10.8994 96.6611 10.418 96.6611 9.79737V8.80937C96.6611 8.18871 96.4711 7.71371 96.0911 7.38437C95.7238 7.04237 95.2045 6.87138 94.5331 6.87138H91.3411V11.7354Z" fill="#40D97B"/>
<path d="M87.5677 18.7464H85.7627L84.1857 16.1054L82.4377 13.2174H82.3617L80.5567 16.1054L78.8847 18.7464H77.1367L81.4687 11.9824L77.3837 5.48438H79.1887L80.7277 8.04937L82.3807 10.7284H82.4567L84.0907 8.04937L85.6867 5.48438H87.4347L83.3307 11.9634L87.5677 18.7464Z" fill="#40D97B"/>
<path d="M66.96 18.7464V5.48438H75.13V6.87138H68.556V11.3364H74.902V12.7234H68.556V17.3594H75.13V18.7464H66.96Z" fill="#40D97B"/>
</svg>
